<?xml version="1.0" standalone="no"?>
<!DOCTYPE svg PUBLIC "-//W3C//DTD SVG 20010904//EN"
 "http://www.w3.org/TR/2001/REC-SVG-20010904/DTD/svg10.dtd">
<svg version="1.0" xmlns="http://www.w3.org/2000/svg"
 width="500.000000pt" height="500.000000pt" viewBox="0 0 500.000000 500.000000"
 preserveAspectRatio="xMidYMid meet">
<metadata>
Created by potrace 1.14, written by Peter Selinger 2001-2017
</metadata>
<g transform="translate(0.000000,500.000000) scale(0.100000,-0.100000)"
fill="#000000" stroke="none">
<path d="M2084 4376 c-21 -9 -38 -29 -52 -60 -12 -25 -22 -49 -22 -53 0 -5
-15 -48 -34 -98 l-34 -90 -68 -26 c-38 -15 -102 -39 -142 -54 -55 -20 -76 -34
-87 -55 -19 -37 -19 -73 0 -109 15 -30 42 -44 204 -102 51 -19 95 -38 97 -44
1 -5 24 -68 51 -139 40 -108 53 -132 78 -148 36 -22 67 -23 103 -4 34 18 41
31 96 181 l44 120 124 45 c67 25 133 52 145 60 42 27 55 88 28 140 -11 21 -31
34 -87 55 -40 15 -104 39 -142 53 l-68 27 -43 115 c-56 154 -68 176 -106 189
-40 14 -47 13 -85 -3z"/>
<path d="M3760 4153 c-345 -26 -624 -256 -720 -593 -34 -117 -36 -289 -6 -406
43 -163 110 -280 226 -394 153 -150 362 -231 580 -226 126 4 216 25 330 78
462 214 611 802 307 1214 -168 229 -430 348 -717 327z"/>
<path d="M1685 3005 c-384 -41 -739 -260 -960 -591 -65 -99 -120 -212 -158
-329 -29 -88 -32 -102 -51 -220 -12 -74 -14 -314 -3 -375 22 -123 33 -167 59
-245 50 -146 134 -299 236 -428 49 -61 194 -193 266 -241 258 -174 503 -248
796 -242 151 3 243 18 382 62 446 141 792 515 898 969 105 453 -26 921 -349
1246 -306 307 -682 440 -1116 394z"/>
<path d="M3817 2102 c-10 -10 -30 -65 -46 -121 -15 -56 -30 -103 -32 -105 -2
-1 -39 -15 -81 -30 -64 -23 -78 -32 -87 -56 -13 -40 14 -73 74 -90 25 -7 48
-17 51 -21 3 -5 14 -9 24 -9 20 0 25 -12 60 -158 19 -80 41 -112 76 -112 35 0
57 39 83 146 13 54 27 104 32 110 5 6 41 24 81 39 93 36 103 48 84 102 -7 21
-68 51 -141 69 -20 5 -28 17 -40 60 -8 30 -22 78 -30 107 -22 81 -70 111 -108
69z"/>
</g>
</svg>
